<?xml version="1.0" encoding="UTF-8" standalone="no"?>
<!-- Created with Inkscape (http://www.inkscape.org/) -->

<svg
   xmlns:dc="http://purl.org/dc/elements/1.1/"
   xmlns:cc="http://creativecommons.org/ns#"
   xmlns:rdf="http://www.w3.org/1999/02/22-rdf-syntax-ns#"
   xmlns:svg="http://www.w3.org/2000/svg"
   xmlns="http://www.w3.org/2000/svg"
   xmlns:sodipodi="http://sodipodi.sourceforge.net/DTD/sodipodi-0.dtd"
   xmlns:inkscape="http://www.inkscape.org/namespaces/inkscape"
   width="529.19"
   height="354.00391"
   id="svg2"
   version="1.1"
   inkscape:version="0.48.4 r9939"
   sodipodi:docname="moyamodeavatar.svg"
   inkscape:export-filename="/home/yaseen/moyamodeavatar.png"
   inkscape:export-xdpi="90"
   inkscape:export-ydpi="90">
  <defs
     id="defs4">
    <inkscape:perspective
       id="perspective2447"
       inkscape:persp3d-origin="372.04724 : 350.78739 : 1"
       inkscape:vp_z="744.09448 : 526.18109 : 1"
       inkscape:vp_y="0 : 1000 : 0"
       inkscape:vp_x="0 : 526.18109 : 1"
       sodipodi:type="inkscape:persp3d" />
  </defs>
  <sodipodi:namedview
     id="base"
     pagecolor="#c5ffff"
     bordercolor="#666666"
     borderopacity="1.0"
     inkscape:pageopacity="1"
     inkscape:pageshadow="2"
     inkscape:zoom="1.4142136"
     inkscape:cx="386.34984"
     inkscape:cy="18.860768"
     inkscape:document-units="px"
     inkscape:current-layer="layer1"
     showgrid="false"
     inkscape:window-width="679"
     inkscape:window-height="745"
     inkscape:window-x="0"
     inkscape:window-y="19"
     inkscape:window-maximized="0"
     fit-margin-top="0"
     fit-margin-left="0"
     fit-margin-right="0"
     fit-margin-bottom="0" />
  <metadata
     id="metadata7">
    <rdf:RDF>
      <cc:Work
         rdf:about="">
        <dc:format>image/svg+xml</dc:format>
        <dc:type
           rdf:resource="http://purl.org/dc/dcmitype/StillImage" />
        <dc:title />
      </cc:Work>
    </rdf:RDF>
  </metadata>
  <g
     inkscape:label="Layer 1"
     inkscape:groupmode="layer"
     id="layer1"
     transform="translate(71.65625,-0.66277281)">
    <flowRoot
       xml:space="preserve"
       id="flowRoot2985"
       style="font-size:40px;font-style:normal;font-weight:normal;line-height:125%;letter-spacing:0px;word-spacing:0px;fill:#000000;fill-opacity:1;stroke:none;font-family:Sans"
       transform="translate(-160.21875,-396.77702)"><flowRegion
         id="flowRegion2987"><rect
           id="rect2989"
           width="528.57141"
           height="457.14285"
           x="88.571426"
           y="358.07648" /></flowRegion><flowPara
         id="flowPara2991"
         style="font-weight:bold;line-height:132.99999237%" /><flowPara
         style="font-weight:bold;line-height:132.99999237%"
         id="flowPara2993" /></flowRoot>    <flowRoot
       xml:space="preserve"
       id="flowRoot2995"
       style="font-size:40px;font-style:normal;font-weight:normal;line-height:125%;letter-spacing:0px;word-spacing:0px;fill:#000080;fill-opacity:1;stroke:none;font-family:Sans"
       transform="translate(-149.48036,-394.62935)"><flowRegion
         id="flowRegion2997"><rect
           id="rect2999"
           width="562.93427"
           height="703.9137"
           x="131.42857"
           y="252.36218"
           style="fill:#000080" /></flowRegion><flowPara
         id="flowPara3001"
         style="font-size:500px;font-style:normal;font-variant:normal;font-weight:bold;font-stretch:normal;fill:#000080;font-family:Liberation Sans;-inkscape-font-specification:Liberation Sans Bold">C</flowPara></flowRoot>    <flowRoot
       xml:space="preserve"
       id="flowRoot3003"
       style="font-size:40px;font-style:normal;font-weight:normal;line-height:125%;letter-spacing:0px;word-spacing:0px;fill:#000000;fill-opacity:1;stroke:none;font-family:Sans"><flowRegion
         id="flowRegion3005"><rect
           id="rect3007"
           width="197.14285"
           height="57.142857"
           x="294.28571"
           y="472.36218" /></flowRegion><flowPara
         id="flowPara3009" /></flowRoot>    <text
       xml:space="preserve"
       style="font-size:40px;font-style:normal;font-weight:normal;line-height:125%;letter-spacing:0px;word-spacing:0px;fill:#000000;fill-opacity:1;stroke:none;font-family:Sans"
       x="-91.118256"
       y="280.89426"
       id="text3011"
       sodipodi:linespacing="125%"><tspan
         sodipodi:role="line"
         id="tspan3013"
         x="-91.118256"
         y="280.89426">+</tspan></text>
    <path
       sodipodi:type="arc"
       style="fill:#000000;fill-opacity:1"
       id="path3015"
       sodipodi:cx="452.08621"
       sodipodi:cy="582.02069"
       sodipodi:rx="19.329102"
       sodipodi:ry="18.255262"
       d="m 471.41531,582.02069 c 0,10.0821 -8.65393,18.25526 -19.3291,18.25526 -10.67517,0 -19.3291,-8.17316 -19.3291,-18.25526 0,-10.0821 8.65393,-18.25526 19.3291,-18.25526 10.67517,0 19.3291,8.17316 19.3291,18.25526 z"
       transform="translate(-160.21875,-396.77702)" />
    <rect
       style="fill:#000000;fill-opacity:1"
       id="rect3044"
       width="8.5907116"
       height="42.95356"
       x="288.64594"
       y="200.2774" />
    <rect
       style="fill:#000000;fill-opacity:1"
       id="rect3048"
       width="6.5759182"
       height="46.463013"
       x="139.71765"
       y="-384.74921"
       transform="matrix(-0.22749264,0.9737798,-0.95223477,-0.30536689,0,0)"
       inkscape:transform-center-x="6.7704895"
       inkscape:transform-center-y="8.5599648" />
    <rect
       style="fill:#000000;fill-opacity:1"
       id="rect3052"
       width="24.698296"
       height="7.5168729"
       x="358.07834"
       y="49.658363"
       transform="matrix(0.8876628,0.46049403,-0.46049403,0.8876628,0,0)" />
    <rect
       style="fill:#000000;fill-opacity:1"
       id="rect3054"
       width="36.160332"
       height="6.5873561"
       x="168.2886"
       y="317.09357"
       transform="matrix(0.93992269,-0.34138738,0.4770708,0.87886486,0,0)" />
    <rect
       style="fill:#000000;fill-opacity:1"
       id="rect3058"
       width="7.5168662"
       height="25.772108"
       x="327.30414"
       y="257.19095" />
    <rect
       style="fill:#000000;fill-opacity:1"
       id="rect3060"
       width="2.1476779"
       height="7.5168729"
       x="330.52567"
       y="270.077" />
    <path
       style="fill:#000000;stroke:#2b1100;stroke-width:1px;stroke-linecap:butt;stroke-linejoin:miter;stroke-opacity:1;fill-opacity:0;opacity:1"
       d="m 342.4503,214.42093 c 14.66673,-47.33471 45.61201,-106.28952 88.08098,-125.287604 l -1.74936,234.635594 c -2.58169,5.04685 3.44186,31.63238 7.51688,6.97996"
       id="path3073"
       inkscape:connector-curvature="0"
       sodipodi:nodetypes="cccc" />
    <g
       id="g3232"
       transform="matrix(0.33140726,0,0,0.33140726,126.79932,171.70418)">
      <path
         id="path3210"
         d="m 102.681,291.324 c 0,0 -14.178,8.245 10.09,11.035 29.4,3.354 44.426,2.873 76.825,-3.259 0,0 8.518,5.341 20.414,9.967 -72.63,31.128 -164.376,-1.803 -107.329,-17.743"
         style="fill:#5382a1"
         inkscape:connector-curvature="0" />
      <path
         id="path3212"
         d="m 93.806,250.704 c 0,0 -15.902,11.771 8.384,14.283 31.406,3.24 56.208,3.505 99.125,-4.759 0,0 5.936,6.018 15.27,9.309 -87.814,25.678 -185.623,2.025 -122.779,-18.833"
         style="fill:#5382a1"
         inkscape:connector-curvature="0" />
      <path
         id="path3214"
         d="m 168.625,181.799 c 17.896,20.604 -4.702,39.145 -4.702,39.145 0,0 45.441,-23.458 24.572,-52.833 -19.491,-27.394 -34.438,-41.005 46.479,-87.934 0,0 -127.013,31.722 -66.349,101.622"
         style="fill:#e76f00"
         inkscape:connector-curvature="0" />
      <path
         id="path3216"
         d="m 264.684,321.369 c 0,0 10.492,8.645 -11.555,15.333 -41.923,12.7 -174.488,16.535 -211.314,0.506 -13.238,-5.759 11.587,-13.751 19.396,-15.428 8.144,-1.766 12.798,-1.437 12.798,-1.437 -14.722,-10.371 -95.157,20.364 -40.857,29.166 148.084,24.015 269.943,-10.814 231.532,-28.14"
         style="fill:#5382a1"
         inkscape:connector-curvature="0" />
      <path
         id="path3218"
         d="m 109.499,208.617 c 0,0 -67.431,16.016 -23.879,21.832 18.389,2.462 55.047,1.905 89.193,-0.956 27.906,-2.354 55.927,-7.359 55.927,-7.359 0,0 -9.84,4.214 -16.959,9.075 -68.475,18.009 -200.756,9.631 -162.674,-8.79 32.206,-15.568 58.392,-13.802 58.392,-13.802"
         style="fill:#5382a1"
         inkscape:connector-curvature="0" />
      <path
         id="path3220"
         d="m 230.462,276.231 c 69.608,-36.171 37.424,-70.931 14.96,-66.248 -5.506,1.146 -7.961,2.139 -7.961,2.139 0,0 2.044,-3.202 5.948,-4.588 44.441,-15.624 78.619,46.081 -14.346,70.52 0,0.001 1.077,-0.962 1.399,-1.823"
         style="fill:#5382a1"
         inkscape:connector-curvature="0" />
      <path
         id="path3222"
         d="m 188.495,4.399 c 0,0 38.55,38.563 -36.563,97.862 -60.233,47.568 -13.735,74.69 -0.025,105.678 C 116.748,176.217 90.946,148.292 108.256,122.302 133.663,84.151 204.049,65.654 188.495,4.399"
         style="fill:#e76f00"
         inkscape:connector-curvature="0" />
      <path
         id="path3224"
         d="m 116.339,374.246 c 66.815,4.277 169.417,-2.373 171.847,-33.988 0,0 -4.671,11.985 -55.219,21.503 -57.028,10.732 -127.364,9.479 -169.081,2.601 10e-4,-0.001 8.54,7.068 52.453,9.884"
         style="fill:#5382a1"
         inkscape:connector-curvature="0" />
    </g>
    <g
       transform="matrix(-1,0,0,1,349.61559,308.54957)"
       id="g3696">
      <g
         id="g3690">
        <path
           sodipodi:nodetypes="csssssssssszzssssssssssssc"
           id="path2473"
           d="m -61.003091,-181.73405 c 0,0 1.989558,-2.98139 4,-3.125 1.75,-0.125 7.625,0.625 7.625,0.625 -0.125,-4.375 -6.875,-5.5 -9.125,-6.5 -2.25,-1 -4.25,-3 -7.25,-2.75 -3,0.25 -8.75,2 -14.25,3.5 -5.5,1.5 -24.304069,7.2488 -24.249999,19.75 0.0962,22.25321 37.565583,24.7519 37.249999,34.5 -0.462341,14.5313 -35.579739,18.76456 -34.749999,40.250003 0.8206,21.24894 36.64326,27.99057 36.999999,34.5 0.42404,7.73748 -30.860768,15.25366 -30.5,24.5 0.517764,13.2701 23.982667,13.28074 24.146114,19.59853 0.165154,6.38377 -17.240655,9.55838 -17.146114,10.29758 0.08623,0.67421 11.292228,0.3874 13.617962,-1.0563 3.483692,-2.1625 8.969093,-5.31295 8.882038,-9.83981 -0.25,-13 -20.115429,-11.74454 -20,-18 0.124486,-6.74629 28.019363,-7.24226 28.25,-24.5 0.307204,-23.23693 -33.344927,-17.00821 -33.75,-33.25 -0.461628,-18.509443 37.277485,-20.750383 37,-39.500003 -0.36298,-24.77649 -38.25,-25.5 -38,-34.75 0.25,-9.25 12.25,-12.25 14,-12.25 1.75,0 10.25,-1.375 12,1.25 0,0 2.375,0 4.25,-0.25 3.478137,-0.46375 6.75,-0.5 8.75,-0.5 2,0 3.375,-2.25 3.375,-2.25 -2.625,-1.125 -11.125,-0.25 -11.125,-0.25 z"
           style="fill:#3778ae;fill-opacity:1;fill-rule:evenodd;stroke:#2a5b7c;stroke-width:1px;stroke-linecap:butt;stroke-linejoin:miter;stroke-opacity:1"
           inkscape:connector-curvature="0" />
      </g>
    </g>
    <path
       sodipodi:nodetypes="csssssssssszzssssssssssssc"
       id="path2473-8"
       d="m 446.37705,125.88877 c 0,0 1.98956,-2.98138 4,-3.12499 1.75,-0.125 7.625,0.625 7.625,0.625 -0.125,-4.375 -6.875,-5.5 -9.125,-6.5 -2.25,-1 -4.25,-3 -7.25,-2.75 -3,0.25 -8.75,2 -14.25,3.5 -5.5,1.5 -24.30407,7.24879 -24.25,19.74999 0.0962,22.25321 37.56559,24.7519 37.25,34.5 -0.46234,14.5313 -35.57974,18.76456 -34.75,40.25001 0.8206,21.24894 36.64326,27.99057 37,34.5 0.42404,7.73748 -30.86077,15.25366 -30.5,24.5 0.51777,13.2701 23.98267,13.28074 24.14612,19.59853 0.16515,6.38377 -17.24066,9.55838 -17.14612,10.29758 0.0862,0.67421 11.29223,0.3874 13.61796,-1.0563 3.4837,-2.1625 8.9691,-5.31295 8.88204,-9.83981 -0.25,-13 -20.11543,-11.74454 -20,-18 0.12449,-6.74629 28.01937,-7.24226 28.25,-24.5 0.30721,-23.23693 -33.34492,-17.00821 -33.75,-33.25 -0.46163,-18.50945 37.27749,-20.75039 37,-39.50001 -0.36298,-24.77649 -38.25,-25.5 -38,-34.75 0.25,-9.25 12.25,-12.25 14,-12.25 1.75,0 10.25,-1.375 12,1.25 0,0 2.375,0 4.25,-0.25 3.47814,-0.46375 6.75,-0.5 8.75,-0.5 2,0 3.375,-2.25 3.375,-2.25 -2.625,-1.125 -11.125,-0.25 -11.125,-0.25 z"
       style="fill:#ffd747;fill-opacity:1;fill-rule:evenodd;stroke:#d4b425;stroke-width:1px;stroke-linecap:butt;stroke-linejoin:miter;stroke-opacity:1"
       inkscape:connector-curvature="0" />
  </g>
</svg>
